# xmcd
#
# Track frame offsets:
#	150
#	13042
#	23171
#	33007
#	44012
#	54710
#	68494
#	81654
#	96369
#	108297
#	123343
#	135308
#	145827
#	157418
#	168155
#	178717
#	189931
#	201552
#	212969
#	224400
#	236559
#	247100
#	258107
#	270179
#	280069
#	289778
#	302727
#	313364
#	323988
#	337876
#
# Disc length: 4677 seconds
#
# Revision: 1
# Processed by: cddbd v1.5.2PL0 Copyright (c) Steve Scherf et al.
# Submitted via: audiograbber 1.83.01
#
DISCID=c312431e
DTITLE=Wells,Junior - Cut that out - 1953-1963 sides
DYEAR=2015
DGENRE=Blues
TTITLE0=Cut That Out
TTITLE1=Messin' With The Kid
TTITLE2=Lovey Dovey, Lovely One
TTITLE3=Tomorrow Night
TTITLE4=Eagle Rock
TTITLE5=Hoodoo Man
TTITLE6=Junior's Wail
TTITLE7='bout The Break Of Day
TTITLE8=Lord, Lord (Lawdy! Lawdy!)
TTITLE9=So All Alone
TTITLE10=Two Headed Woman
TTITLE11=Cha Cha In Blue (Cut My Toe Nail)
TTITLE12=Little By Little (I'm Losing You)
TTITLE13=Come On In This House
TTITLE14=You Don't Care
TTITLE15=Prison Bars All Around Me
TTITLE16=Galloping Horses And A Lazy Mule
TTITLE17=Calling All Blues
TTITLE18=Universal Rock
TTITLE19=I'm A Stranger
TTITLE20=The Things I'd Do For You
TTITLE21=You Sure Look Good To Me
TTITLE22=It Hurts Me Too
TTITLE23=So Tired
TTITLE24=Love Me
TTITLE25=I Could Cry (1961 Version)
TTITLE26=I Need Me A Car
TTITLE27=When The Cat's Gone The Mice Play
TTITLE28=I'll Get You Too
TTITLE29=One Day (Every Goodbye Ain't Gone)
EXTD=
EXTT0=
EXTT1=
EXTT2=
EXTT3=
EXTT4=
EXTT5=
EXTT6=
EXTT7=
EXTT8=
EXTT9=
EXTT10=
EXTT11=
EXTT12=
EXTT13=
EXTT14=
EXTT15=
EXTT16=
EXTT17=
EXTT18=
EXTT19=
EXTT20=
EXTT21=
EXTT22=
EXTT23=
EXTT24=
EXTT25=
EXTT26=
EXTT27=
EXTT28=
EXTT29=
PLAYORDER=
